<?xml version="1.0" encoding="UTF-8" standalone="no"?>
<!-- Created with Inkscape (http://www.inkscape.org/) -->

<svg
   width="3088.6807"
   height="3088.6824"
   viewBox="0 0 817.21341 817.21388"
   version="1.1"
   id="svg5"
   xml:space="preserve"
   xmlns="http://www.w3.org/2000/svg"
   xmlns:svg="http://www.w3.org/2000/svg"><defs
     id="defs2" /><g
     id="layer1"
     transform="translate(-4797.3834,-7446.9551)"><g
       id="g1998"
       transform="translate(3845.3383,1625.3732)"><rect
         style="fill:#000000;fill-opacity:0;stroke:none;stroke-width:17.3546;stroke-dasharray:none;stroke-opacity:1"
         id="rect1982"
         width="817.2135"
         height="817.2135"
         x="952.04474"
         y="5821.582" /><g
         id="g1996"
         transform="matrix(0.9970016,0,0,0.9970016,-4066.9776,-1695.9782)"
         style="stroke:#040000;stroke-opacity:1"><path
           style="fill:#ffffff;fill-opacity:1;stroke:#ffffff;stroke-width:14.911;stroke-dasharray:none;stroke-opacity:1"
           d="m 5424.5842,8029.8815 c -28.2497,-5.6057 -52.3804,-25.3406 -61.9315,-50.6503 -3.773,-9.9984 -6.6407,-26.4319 -4.3673,-25.0265 0.4444,0.2785 0.8135,1.4267 0.8135,2.556 0,3.433 3.097,14.4333 6.0056,21.3293 7.0566,16.7328 20.927,31.4326 37.5158,39.7602 6.944,3.4857 15.3362,6.3534 22.0984,7.5508 7.3777,1.307 25.6148,0.5966 32.4048,-1.2614 32.0281,-8.7666 54.9406,-34.1937 58.9868,-65.461 2.226,-17.2049 -1.7918,-35.8348 -11.1414,-51.6563 -4.5889,-7.7653 -17.0995,-20.629 -23.9961,-24.6734 -11.2919,-6.6205 -26.81,-11.8013 -39.6364,-13.2316 -4.2914,-0.48 -7.9756,-1.0428 -8.1865,-1.2538 -1.6311,-1.6311 9.0362,-3.1491 16.4489,-2.3409 18.7271,2.0423 36.0754,10.6104 49.2147,24.306 25.3263,26.3982 30.8732,68.2854 13.0509,98.5419 -12.068,20.4868 -30.0165,34.1468 -52.5397,39.9859 -9.8402,2.5513 -25.9953,3.2605 -34.7405,1.5251 z"
           id="path1984" /><path
           style="fill:#ffffff;fill-opacity:1;stroke:#ffffff;stroke-width:11.8;stroke-dasharray:none;stroke-opacity:1"
           d="m 5422.1413,8069.7163 c -29.6267,-4.7602 -51.401,-16.0532 -71.5862,-37.1289 -13.3347,-13.9225 -22.7916,-29.603 -28.4968,-47.2511 -4.3489,-13.4521 -5.4948,-22.6536 -4.9923,-40.0801 0.6736,-23.3486 5.304,-39.8366 16.5105,-58.7918 10.5162,-17.7874 28.6674,-35.1606 45.588,-43.6339 8.1237,-4.0681 9.2121,-3.6516 1.7982,0.6885 -25.7067,15.0477 -44.9054,38.4525 -53.9926,65.8206 -4.3317,13.0462 -5.3869,19.2247 -5.8651,34.334 -0.6902,21.8063 2.3031,36.4937 11.0993,54.4589 16.2919,33.2752 46.6509,57.3016 81.7433,64.6924 13.5445,2.8529 24.7066,3.6676 34.8567,2.5448 45.3835,-5.0208 84.3456,-34.9799 100.2518,-77.0869 8.952,-23.6981 8.7026,-59.0525 -0.5978,-84.7568 -3.6332,-10.0405 -1.6655,-10.1359 3.3962,-0.1659 3.0727,6.0535 6.1003,15.3374 7.8523,24.0785 2.1751,10.848 1.9855,33.741 -0.3673,44.5309 -10.8694,49.8333 -47.5841,86.3921 -96.9463,96.5345 -11.1466,2.29 -30.0029,2.857 -40.2513,1.2105 z"
           id="path1986" /><path
           style="fill:#ffffff;fill-opacity:1;stroke:#ffffff;stroke-width:18.527;stroke-dasharray:none;stroke-opacity:1"
           d="m 5483.798,7776.181 c 11.3488,1.0048 26.4068,5.1008 40.4279,10.9977 9.5177,4.0023 29.6283,15.8918 38.2672,22.6228 24.1524,18.82 42.6113,42.8015 55.2096,71.7285 5.5168,12.667 11.6098,34.7401 13.1675,47.691 8.3279,69.3412 -22.4404,136.4099 -79.9396,174.2498 -19.2205,12.6491 -43.3985,22.607 -64.0682,26.3869 -38.3383,7.0115 -73.1227,3.3821 -107.292,-11.1941 -10.3167,-4.4004 -29.9753,-16.1509 -39.4786,-23.596 -28.9976,-22.7189 -50.0667,-53.2937 -60.7741,-88.1941 -7.7604,-25.2952 -9.9769,-50.7322 -6.5329,-74.9688 1.4146,-9.9558 2.2839,-8.5714 1.2225,1.9475 -2.0515,20.3406 0,42.9945 5.8516,64.5016 12.0805,44.36 40.0426,81.0479 80.5169,105.5662 32.4592,19.6631 66.5211,27.0352 108.9944,23.5895 11.2216,-0.9097 44.7943,-10.0039 54.9619,-14.892 16.6789,-8.0103 30.1816,-16.8836 42.9941,-28.2524 40.038,-35.5287 61.4789,-86.6424 59.0368,-140.7403 -0.6498,-14.4056 -2.5176,-24.5911 -7.649,-41.724 -4.9474,-16.5149 -8.8753,-25.5333 -17.1571,-39.386 -15.3287,-25.6393 -37.2156,-47.1609 -63.5568,-62.4959 -14.602,-8.5007 -27.3736,-13.7779 -47.1502,-19.4818 -6.0503,-1.7448 -11.077,-3.4546 -11.1703,-3.7989 -0.2194,-0.8098 0.7196,-0.854 4.4538,-0.525 z"
           id="path1988" /><path
           style="fill:#ffffff;fill-opacity:1;stroke:#ffffff;stroke-width:22.703;stroke-dasharray:none;stroke-opacity:1"
           d="m 5263.0841,8148.3235 c -14.9185,-10.9659 -32.9198,-30.3293 -45.4695,-48.9124 -25.3216,-37.4933 -39.6553,-74.7756 -45.3492,-117.9551 -1.7958,-13.6173 -2.0494,-50.3724 -0.4384,-63.4517 7.5241,-61.0718 32.3267,-113.3881 74.1908,-156.4947 61.9616,-63.8002 148.6251,-92.1844 237.1342,-77.6664 82.8365,13.5878 156.2517,67.6479 193.8658,142.7552 13.5919,27.14 21.9485,54.0281 26.6381,85.7114 1.7455,11.793 2.4423,44.0279 1.2478,57.7578 -1.8237,20.9709 -6.9322,45.4985 -13.1256,63.0175 -6.8208,19.2947 -18.7395,43.3495 -29.6705,59.8814 -6.9233,10.4706 -18.144,24.7611 -18.8716,24.0335 -0.2192,-0.2193 1.9552,-3.446 4.8371,-7.1657 26.0504,-33.6183 45.2171,-78.7625 51.4099,-121.087 4.4538,-30.4437 3.6273,-62.3325 -2.3943,-92.3396 -19.7094,-98.213 -94.0193,-176.9518 -191.1659,-202.5584 -36.6323,-9.6559 -78.5095,-11.0927 -116.3215,-3.9905 -71.7414,13.4758 -134.9757,56.8893 -174.0752,119.5122 -27.4795,44.0113 -40.8095,93.7953 -39.2163,146.4601 1.2134,40.1002 10.0103,74.6707 28.3599,111.4476 13.6044,27.2668 29.0656,48.1737 55.4774,75.0162 5.0643,4.869 12.2253,12.8339 2.937,6.0286 z"
           id="path1990" /><path
           style="fill:#ffffff;fill-opacity:1;stroke:#ffffff;stroke-width:12.233;stroke-dasharray:none;stroke-opacity:1"
           d="m 5426.6158,8168.0555 c -54.4665,-3.6486 -103.8014,-25.1693 -141.4428,-61.6998 -25.5373,-24.783 -44.6732,-55.2729 -55.6705,-88.6998 -8.0704,-24.5312 -11.1384,-43.6807 -11.1384,-69.5196 0,-26.8301 3.0069,-44.7798 11.9993,-71.6193 11.719,-34.9799 34.42,-68.6575 63.405,-94.0656 67.5429,-59.2077 166.1037,-70.8568 245.8528,-29.0578 20.764,10.883 37.966,23.5897 53.4012,39.4461 17.3762,17.8508 32.6922,39.3721 40.0475,56.2737 1.6809,3.8613 -0.5214,1.5612 -2.7871,-2.9139 -5.4759,-10.8054 -17.0373,-27.3023 -27.31,-38.9692 -22.5588,-25.619 -46.6231,-43.3282 -76.5276,-56.3169 -18.0984,-7.8613 -35.6909,-12.955 -55.5165,-16.0745 -9.3199,-1.4664 -14.8835,-1.7947 -30.8904,-1.8213 -19.9204,-0.059 -28.1828,0.6653 -43.1149,3.6432 -40.0481,7.9863 -77.795,27.8249 -107.9033,56.7092 -27.3711,26.2583 -50.1727,65.5154 -58.9263,101.4504 -12.7784,52.4568 -6.9601,103.2285 17.3205,151.1426 9.589,18.9232 21.8626,35.9256 37.6194,52.115 27.3646,28.1158 61.6731,47.821 100.7253,57.8514 33.1662,8.519 70.7993,8.9242 103.4951,1.1157 12.0046,-2.8671 31.7531,-9.1926 42.949,-13.7572 2.3267,-0.9486 2.6058,-0.9492 2.6058,0 0,1.3675 -21.337,11.3541 -31.3212,14.6596 -12.0177,3.9792 -25.433,6.9299 -38.7162,8.5154 -10.6181,1.268 -30.5859,2.1034 -38.1557,1.5962 z"
           id="path1992" /><path
           style="fill:#ffffff;fill-opacity:1;stroke:#ffffff;stroke-width:17.2605;stroke-dasharray:none;stroke-opacity:1"
           d="m 5418.0419,8274.7166 c -67.1054,-5.9102 -126.4451,-29.6803 -178.7713,-71.6118 -13.6192,-10.9129 -38.3569,-35.804 -49.1078,-49.4113 -32.8367,-41.5606 -54.3795,-87.0933 -64.1616,-135.6106 -5.0462,-25.0263 -7.0223,-43.8977 -6.9146,-66.0341 0.1301,-27.1188 1.153,-28.2386 1.6951,-1.8582 0.5266,25.6056 1.853,38.2886 6.4032,61.1735 5.915,29.7463 14.028,53.9173 26.4203,78.7098 32.7608,65.542 84.5657,117.1205 149.454,148.7995 38.6386,18.8637 79.1661,29.132 124.36,31.509 55.9071,2.94 113.9955,-9.8675 163.6911,-36.0911 30.1998,-15.9359 54.1213,-33.6555 78.4612,-58.1174 26.0231,-26.1552 43.5835,-50.3048 59.3445,-81.6143 16.9808,-33.7338 26.9683,-66.6097 32.5839,-107.2574 2.0673,-14.9646 2.0827,-61.1999 0,-76.6702 -5.3895,-40.5283 -15.8367,-74.6486 -33.091,-108.073 -16.2647,-31.5091 -33.8932,-55.7199 -58.8486,-80.823 -26.0195,-26.174 -51.8611,-44.8298 -85.2338,-61.5322 -31.969,-15.9994 -63.262,-25.5552 -105.3142,-32.1589 -6.8106,-1.0693 -12.5941,-2.157 -12.8527,-2.4167 -0.9381,-0.9416 15.9361,-0.4455 25.8277,0.7635 53.1137,6.4766 110.6299,31.4668 155.9941,67.7782 13.5802,10.8704 36.8043,34.0808 47.5618,47.5341 25.6977,32.1369 44.5209,66.2967 56.8807,103.2241 7.7473,23.148 11.8193,41.7982 15.146,69.3739 1.4461,11.9838 1.4555,56.4055 0,68.5145 -6.6127,55.5861 -24.4985,104.9012 -53.839,148.4472 -21.3677,31.7116 -52.4091,63.3764 -83.2359,84.9043 -44.4161,31.0188 -89.6739,48.7673 -144.6421,56.7244 -9.1294,1.3211 -16.5921,1.6959 -37.7858,1.8961 -14.5251,0.1366 -28.055,0.107 -30.066,-0.071 z"
           id="path1994" /></g></g></g></svg>
